{"glyphs":{":":{"x_min":0,"x_max":281,"ha":281,"o":""},"$":{"x_min":0,"x_max":510,"ha":510,"o":"m 292 717 l 292 674 q 357 664 433 631 l 394 542 l 292 572 l 292 387 l 417 453 q 482 381 482 279 q 482 215 450 160 q 401 75 292 0 l 292 -87 l 238 -87 l 238 10 l 28 69 l 84 158 l 238 116 l 238 334 l 121 274 q 65 330 47 369 q 28 408 28 458 q 28 517 57 568 q 86 619 139 648 q 178 670 238 676 l 238 717 z m 238 587 l 132 617 q 103 566 103 519 q 103 468 128 427 q 154 386 212 346 l 238 359 z m 292 101 l 359 83 q 384 114 396 148 q 409 183 409 220 q 409 270 384 313 q 360 357 318 376 l 292 363 z"},"?":{"x_min":0,"x_max":333,"ha":333,"o":"m 17 535 l 90 667 l 107 667 q 194 667 244 624 q 293 581 293 521 q 293 490 279 459 q 265 428 221 375 q 176 323 162 287 q 148 250 148 184 l 127 184 q 126 205 126 214 q 126 250 134 289 q 142 328 167 398 q 187 451 187 486 q 187 503 176 523 q 166 544 147 555 q 128 566 107 566 q 67 566 31 527 z m 137 0 l 62 74 l 137 149 l 211 74 z"},"<":{"x_min":0,"x_max":667,"ha":667,"o":"m 603 62 l 64 287 l 64 369 l 603 594 l 603 497 l 187 328 l 603 160 z"},"'":{"x_min":0,"x_max":278,"ha":278,"o":"m 151 351 l 127 351 q 94 441 85 511 q 76 580 78 604 l 78 676 l 197 676 l 197 604 q 197 582 189 512 q 181 443 151 351 z"},"=":{"x_min":0,"x_max":667,"ha":667,"o":"m 64 490 l 603 490 l 603 399 l 64 399 z m 64 258 l 603 258 l 603 168 l 64 168 z"},"a":{"x_min":0,"x_max":448,"ha":448,"o":"m 383 500 l 400 493 q 374 452 367 430 q 360 408 360 371 l 360 163 q 360 111 368 98 q 376 85 387 85 q 393 85 399 88 q 403 91 422 106 l 433 90 l 324 0 q 287 29 274 52 q 261 76 260 117 l 111 0 q 28 68 28 135 q 28 179 46 218 q 70 270 128 338 l 70 463 l 77 477 q 96 475 105 475 q 163 475 207 521 q 242 500 284 487 q 327 474 349 474 q 359 474 365 478 q 370 481 383 500 z m 260 406 l 93 458 l 152 332 l 260 281 z m 260 261 l 142 316 q 114 257 114 212 q 114 133 186 82 l 260 141 z"},"L":{"x_min":0,"x_max":729,"ha":729,"o":"m 580 740 l 591 722 q 535 714 507 690 q 479 666 479 618 q 479 592 484 543 q 494 459 494 406 q 494 334 462 281 q 430 227 312 126 q 390 151 451 151 q 507 151 552 135 q 597 120 651 82 l 700 126 l 714 109 l 588 0 q 536 39 485 56 q 433 74 364 74 q 300 74 244 59 q 188 44 99 0 l 89 14 q 177 79 206 118 q 235 158 235 192 q 235 226 214 248 q 193 270 166 270 q 152 270 134 262 l 120 276 q 138 292 153 298 q 168 305 188 305 q 200 305 212 302 q 224 298 236 292 q 237 303 237 310 q 237 341 214 364 q 190 387 156 387 q 132 387 106 367 l 89 379 q 107 403 126 413 q 156 429 190 429 q 198 429 207 427 q 215 426 225 424 q 222 454 222 474 q 222 533 240 574 q 258 616 301 661 q 254 644 222 644 q 189 644 140 659 q 118 666 104 666 q 79 666 62 650 q 44 634 44 611 q 44 603 49 592 l 28 584 q 22 607 22 623 q 22 670 59 705 q 96 740 147 740 q 170 740 219 722 q 269 705 296 705 q 346 705 391 740 l 405 722 q 356 686 336 650 q 316 614 316 563 q 316 526 321 477 q 331 384 331 351 q 331 280 308 222 q 285 165 225 90 q 316 155 356 223 q 396 292 396 377 q 396 425 389 483 q 382 541 382 581 q 382 616 399 650 q 416 684 443 704 q 470 723 503 732 q 528 738 580 740 z"},"3":{"x_min":0,"x_max":510,"ha":510,"o":"m 214 676 l 443 576 q 446 558 446 543 q 446 484 410 440 q 374 396 314 367 q 396 349 437 303 q 478 257 478 204 q 478 148 432 103 q 373 44 214 0 l 18 151 l 88 221 l 306 54 q 333 78 346 107 q 359 135 359 177 q 359 256 314 303 q 268 351 191 351 q 167 351 139 346 l 139 382 l 148 382 q 233 382 280 428 q 327 474 327 554 q 327 586 317 599 q 307 612 294 612 q 280 612 261 597 l 253 591 l 120 496 l 55 562 z"},";":{"x_min":0,"x_max":281,"ha":281,"o":""},"J":{"x_min":0,"x_max":677,"ha":677,"o":"m 643 740 l 660 724 q 597 655 574 603 q 551 552 551 491 q 551 461 553 383 q 554 342 554 298 q 554 163 520 96 q 476 8 375 -58 q 291 -113 228 -113 q 210 -113 197 -110 q 183 -107 153 -96 q 113 -80 87 -80 q 66 -80 52 -89 q 43 -95 35 -116 l 15 -107 q 28 -59 48 -36 q 82 0 136 0 q 159 0 188 -9 q 228 -22 248 -22 q 286 -22 309 2 q 333 26 333 65 q 333 120 295 172 q 243 244 167 244 q 153 244 132 239 l 121 257 q 167 284 208 284 q 229 284 248 279 q 267 273 293 257 q 288 300 276 323 q 260 353 233 369 q 206 386 180 386 q 157 386 132 369 l 119 385 q 146 409 169 418 q 192 427 221 427 q 258 427 304 401 q 306 457 318 490 q 331 523 365 558 q 399 594 476 643 q 406 621 359 621 q 311 621 252 642 q 193 664 161 664 q 120 664 96 644 q 72 624 72 604 q 72 597 75 593 q 79 589 84 589 q 89 589 99 594 q 109 598 117 598 q 134 598 146 586 q 157 574 157 557 q 157 537 144 524 q 131 511 111 511 q 85 511 66 533 q 46 555 46 592 q 46 645 95 689 q 144 734 214 734 q 259 734 365 710 q 450 690 498 690 q 543 690 575 702 q 607 713 643 740 z m 573 671 q 504 637 471 606 q 428 563 406 508 q 384 452 384 355 l 387 139 q 387 59 367 15 q 353 -18 306 -54 q 360 -32 384 -13 q 417 13 437 54 q 456 95 456 159 l 452 380 q 452 480 486 556 q 509 609 573 671 z"},"V":{"x_min":0,"x_max":729,"ha":729,"o":"m 304 579 l 609 740 q 694 616 694 483 q 694 383 650 300 q 591 187 410 0 q 378 21 355 29 q 332 37 306 37 q 276 37 250 30 q 223 22 181 0 l 167 13 q 206 86 219 128 q 233 170 233 204 q 233 256 204 288 q 175 319 138 319 q 121 319 111 314 q 101 309 92 295 l 76 307 q 87 340 109 356 q 131 372 161 372 q 179 372 196 366 q 212 360 240 340 q 235 505 172 601 q 137 655 97 655 q 76 655 63 641 q 46 622 38 573 l 19 579 q 22 635 36 669 q 49 703 76 721 q 103 740 132 740 q 177 740 223 704 q 268 667 304 579 z m 312 556 q 328 502 334 453 q 400 432 453 432 q 521 432 596 465 q 592 518 576 566 q 559 615 524 669 z m 596 440 q 552 422 520 415 q 489 408 452 408 q 396 408 335 430 q 337 406 337 395 q 337 347 322 286 q 351 295 377 300 q 404 304 427 304 q 491 304 561 272 q 593 365 596 440 z m 552 252 q 509 271 483 276 q 458 282 426 282 q 402 282 374 277 q 346 272 315 261 q 299 209 280 170 q 249 104 204 38 q 257 78 294 93 q 343 112 388 112 q 420 112 462 99 q 496 144 515 177 q 534 209 552 252 z"},"\"":{"x_min":0,"x_max":552,"ha":552,"o":""},"7":{"x_min":0,"x_max":510,"ha":510,"o":"m 125 667 l 492 667 l 492 641 q 421 560 382 497 q 322 397 288 284 q 254 171 250 46 l 113 0 q 113 53 126 104 q 148 192 192 281 q 225 349 283 428 q 304 457 404 573 l 208 573 q 149 573 117 553 q 85 533 59 483 l 34 483 z"},"S":{"x_min":0,"x_max":844,"ha":844,"o":"m 314 730 l 535 656 l 551 685 q 560 701 564 704 q 567 708 572 708 q 577 708 580 705 q 583 701 583 697 q 583 690 572 670 l 469 492 l 549 495 q 587 496 638 484 q 688 472 725 446 q 761 420 782 385 q 803 351 803 309 q 803 231 738 157 q 673 83 508 0 q 451 23 375 49 q 235 -18 147 -18 q 84 -18 50 10 q 16 38 16 74 q 16 112 57 144 q 98 176 179 176 q 210 176 258 169 l 294 236 l 226 233 q 200 232 157 240 q 114 248 87 265 q 59 282 45 307 q 32 332 32 359 q 32 402 62 436 q 82 458 127 475 l 126 480 q 126 526 167 585 q 207 644 314 730 z m 491 578 q 414 616 371 629 q 328 642 295 642 q 250 642 221 616 q 192 590 192 556 q 192 521 217 500 q 241 478 291 478 q 324 478 440 490 z m 387 397 q 324 389 265 389 q 198 389 170 405 q 143 420 129 454 q 94 431 94 398 q 94 368 121 348 q 157 323 245 323 q 285 323 348 328 z m 375 330 q 492 343 537 343 q 599 343 632 315 q 665 287 665 248 q 665 214 633 182 q 601 149 498 105 l 595 75 q 659 115 693 161 q 728 207 728 262 q 728 298 706 333 q 685 368 640 388 q 595 409 536 409 q 489 409 415 399 z m 280 166 q 329 156 359 147 q 390 139 468 114 q 576 165 576 215 q 576 231 562 244 q 548 256 527 256 q 500 256 462 250 q 354 236 321 236 z m 342 60 q 217 97 140 97 q 100 97 76 80 q 60 68 60 51 q 60 33 76 22 q 102 4 150 4 q 224 4 342 60 z"},"}":{"x_min":0,"x_max":396,"ha":396,"o":"m 44 -202 l 44 -180 q 93 -170 116 -145 q 140 -120 140 -88 q 140 -56 128 -7 q 116 42 116 78 q 116 111 136 146 q 155 180 193 205 q 219 221 275 237 q 215 256 188 274 q 151 299 133 333 q 115 367 115 397 q 115 426 127 475 q 139 524 139 560 q 139 595 117 620 q 95 645 44 655 l 44 677 l 62 678 q 148 678 205 619 q 246 575 246 522 q 246 489 231 431 q 220 387 220 353 q 220 314 244 287 q 268 260 315 252 l 315 223 q 268 215 244 187 q 220 158 220 118 q 220 84 230 43 q 245 -15 245 -45 q 245 -78 226 -110 q 208 -143 179 -163 q 150 -184 116 -193 q 89 -200 44 -202 z"},"Z":{"x_min":0,"x_max":615,"ha":615,"o":"m 591 740 l 606 728 q 562 669 532 622 q 502 575 428 446 l 579 446 l 561 408 l 405 408 q 390 382 372 355 l 534 355 l 518 319 l 346 319 q 312 271 275 230 q 238 190 105 65 q 250 127 379 127 q 422 127 458 118 q 495 109 539 87 l 591 150 l 606 136 l 495 0 q 432 30 381 43 q 331 56 271 56 q 211 56 156 43 q 101 30 31 0 l 19 17 q 76 81 112 132 q 148 183 229 319 l 79 319 l 96 355 l 253 355 l 288 408 l 122 408 l 140 446 l 315 446 q 354 497 393 538 q 445 593 534 677 q 461 641 406 627 q 351 613 289 613 q 240 613 199 623 q 169 631 128 653 l 67 580 l 50 595 l 174 740 q 235 709 283 696 q 332 684 382 684 q 431 684 478 696 q 525 708 591 740 z"},"x":{"x_min":0,"x_max":510,"ha":510,"o":"m 359 521 l 459 471 l 418 385 l 334 426 l 287 326 l 334 225 q 366 161 389 128 q 412 96 426 87 q 435 83 441 83 q 451 83 469 97 l 479 83 l 386 0 q 354 11 328 41 q 288 87 231 210 l 131 0 l 29 52 l 71 140 l 156 95 l 221 231 q 174 337 121 403 q 94 438 74 438 q 60 438 38 419 l 26 434 l 131 521 q 172 499 197 471 q 229 434 276 347 z"},")":{"x_min":0,"x_max":333,"ha":333,"o":"m 31 -179 l 20 -165 q 94 -101 132 -15 q 187 109 187 287 q 187 452 135 568 q 91 667 20 719 l 28 736 q 151 649 214 545 q 291 420 291 274 q 291 136 220 16 q 149 -104 31 -179 z"},"&":{"x_min":0,"x_max":792,"ha":792,"o":"m 188 0 l 42 224 l 278 379 l 184 546 q 172 568 172 586 q 172 602 183 614 q 199 633 225 642 q 232 645 234 646 l 457 740 q 493 723 518 686 q 543 648 543 604 q 543 570 528 542 q 514 515 482 489 q 463 472 389 424 l 492 239 l 638 341 q 673 313 694 304 q 714 295 731 295 q 738 295 746 296 q 750 297 752 297 l 757 295 q 759 292 759 288 q 759 275 728 250 q 696 225 660 225 q 613 225 573 270 l 502 220 q 533 166 550 144 q 568 122 598 106 q 628 90 667 90 q 694 90 730 107 q 734 109 736 109 q 739 109 740 107 q 743 104 743 102 q 743 87 725 61 q 707 35 673 18 q 638 0 599 0 q 555 0 520 18 q 485 36 458 68 q 439 91 404 151 z m 378 445 q 425 471 444 501 q 457 522 457 553 q 457 598 426 634 q 395 670 363 670 q 336 670 316 651 q 296 632 296 608 q 296 590 314 558 z m 274 86 l 394 170 l 289 359 l 154 271 z"},"_":{"x_min":0,"x_max":500,"ha":500,"o":"m -6 -75 l 506 -75 l 506 -125 l -6 -125 z"},"v":{"x_min":0,"x_max":448,"ha":448,"o":"m 163 401 l 313 521 q 363 481 378 453 q 393 424 393 379 l 393 86 q 351 76 315 57 q 278 38 231 0 q 178 42 133 59 q 88 76 32 78 l 32 90 q 51 101 57 116 q 64 131 64 172 l 64 391 q 64 408 61 417 q 57 427 42 448 q 26 469 20 485 q 14 502 14 523 q 14 562 37 592 q 60 622 125 657 l 135 644 q 84 607 84 574 q 84 562 89 553 q 95 541 119 516 q 142 490 153 463 q 162 442 163 401 z m 163 375 l 163 138 l 292 80 l 292 354 q 292 389 283 406 q 274 424 245 442 z"},"O":{"x_min":0,"x_max":844,"ha":844,"o":"m 434 730 q 519 721 566 706 q 639 683 693 640 q 748 598 778 541 q 809 483 809 416 q 809 353 776 292 q 744 232 666 156 q 587 81 508 40 q 428 0 352 0 q 271 0 194 41 q 118 81 77 152 q 35 223 35 309 q 35 358 45 404 q 56 450 81 510 q 129 534 194 576 q 229 599 370 687 q 398 705 434 730 z m 396 633 q 363 635 331 636 l 331 347 q 331 300 325 282 q 318 263 301 243 l 211 156 q 257 117 298 101 q 338 84 396 81 z m 417 502 q 453 472 484 459 q 516 445 553 445 q 587 445 616 459 q 645 472 677 502 q 649 539 625 556 q 582 588 531 606 q 480 624 417 631 z m 231 572 q 189 541 171 520 q 147 492 131 452 q 115 412 115 364 q 115 261 195 171 q 217 192 224 213 q 231 234 231 294 z m 417 299 q 452 333 482 347 q 512 360 552 360 q 593 360 626 346 q 660 331 698 295 q 711 343 711 379 q 711 412 706 436 q 702 454 690 481 q 647 447 616 434 q 585 422 547 422 q 512 422 483 433 q 455 445 417 475 z m 417 81 q 479 84 518 101 q 576 125 619 169 q 662 213 690 275 q 623 338 552 338 q 511 338 474 316 q 447 301 417 264 z"},"(":{"x_min":0,"x_max":333,"ha":333,"o":"m 302 -179 q 185 -104 114 16 q 43 136 43 274 q 43 420 119 545 q 182 649 305 736 l 314 719 q 242 667 198 568 q 146 452 146 287 q 146 109 201 -15 q 240 -101 314 -165 z"},"C":{"x_min":0,"x_max":729,"ha":729,"o":"m 283 669 l 294 655 q 222 606 186 550 q 140 478 140 393 q 140 290 208 202 q 237 226 243 242 q 249 259 249 332 l 249 551 l 458 725 q 531 696 573 688 q 615 679 672 679 l 683 679 l 691 662 l 610 584 q 529 593 426 644 l 432 86 l 450 86 q 521 86 578 110 q 636 134 698 188 l 713 173 q 667 111 624 76 q 580 42 519 21 q 457 0 396 0 q 307 0 227 43 q 148 87 103 168 q 58 249 58 335 q 58 441 122 531 q 171 602 283 669 z m 404 647 l 347 598 l 347 375 q 347 333 343 320 q 338 302 320 281 q 285 240 221 187 q 260 143 304 120 q 349 97 409 89 z"},"W":{"x_min":0,"x_max":1010,"ha":1010,"o":"m 627 582 l 865 740 q 922 659 946 593 q 971 528 971 465 q 971 402 950 349 q 917 263 854 186 q 792 108 672 0 q 649 27 623 39 q 597 51 574 51 q 542 51 507 41 q 471 30 410 0 q 387 26 366 35 q 339 48 301 48 q 263 48 231 38 q 198 28 151 0 l 137 11 q 214 146 214 228 q 214 275 187 305 q 159 336 125 336 q 104 336 83 319 l 69 330 q 97 387 152 387 q 171 387 190 378 q 209 369 229 350 q 226 526 169 620 q 141 667 104 667 q 86 667 73 652 q 59 637 52 592 l 35 597 q 38 665 66 702 q 94 740 143 740 q 188 740 232 703 q 275 666 303 582 l 540 740 q 587 680 627 582 z m 309 559 q 321 515 325 460 q 360 440 384 433 q 408 426 436 426 q 463 426 488 433 q 513 440 548 460 q 538 521 522 563 q 505 606 468 666 z m 633 562 q 642 540 645 522 q 648 505 652 460 q 688 441 710 435 q 733 429 759 429 q 785 429 809 436 q 832 442 865 460 q 861 507 848 545 q 827 604 791 665 z m 548 437 q 509 417 485 410 q 460 403 433 403 q 408 403 381 410 q 354 418 326 433 l 326 420 q 326 356 301 277 q 330 290 355 296 q 380 302 401 302 q 433 302 460 293 q 488 284 525 261 q 549 337 549 408 q 549 417 548 437 z m 865 433 q 828 417 806 412 q 784 407 758 407 q 733 407 707 413 q 681 420 653 433 q 651 389 645 360 q 639 332 619 286 q 642 294 662 298 q 683 302 702 302 q 738 302 768 292 q 798 283 832 260 q 866 353 866 420 q 866 424 865 433 z m 822 236 q 789 260 762 269 q 736 279 702 279 q 680 279 655 273 q 631 268 604 257 q 580 211 545 167 q 511 123 445 55 q 521 96 572 111 q 622 127 667 127 q 701 127 743 110 q 790 170 822 236 z m 517 236 q 480 261 457 269 q 434 278 406 278 q 381 278 352 270 q 323 262 291 247 q 269 191 245 147 q 222 104 184 50 q 257 89 307 104 q 356 119 402 119 q 424 119 454 115 q 492 173 517 236 z"},"A":{"x_min":0,"x_max":729,"ha":729,"o":"m 678 740 l 688 717 q 652 700 635 683 q 619 667 612 646 q 605 625 605 584 q 605 571 605 549 l 614 184 q 615 124 626 105 q 635 92 646 92 q 661 92 690 121 l 705 103 l 614 25 l 583 0 q 545 18 529 48 q 512 78 510 143 l 321 0 q 164 104 106 104 q 92 104 83 95 q 75 89 75 77 q 75 64 84 49 q 97 29 97 22 q 97 13 90 7 q 83 0 73 0 q 61 0 54 10 q 43 23 43 44 q 43 67 56 96 q 70 125 96 160 q 102 167 106 173 l 176 269 q 105 322 76 371 q 48 419 48 480 q 48 550 84 610 q 120 670 192 705 q 264 740 340 740 q 457 740 565 659 q 591 687 616 704 q 640 722 678 740 z m 438 626 q 376 657 315 657 q 250 657 193 628 q 136 600 108 554 q 80 509 80 462 q 80 362 188 285 l 351 508 q 314 528 285 528 q 245 528 219 490 q 214 482 209 482 q 206 482 203 485 q 201 488 201 492 q 201 507 216 534 q 231 561 261 578 q 292 594 325 594 q 359 594 402 578 z m 501 576 q 487 592 482 596 q 479 600 458 614 l 244 323 l 507 323 z m 191 252 l 147 191 l 396 84 l 511 169 l 509 252 z"},"f":{"x_min":0,"x_max":281,"ha":281,"o":"m 266 676 l 250 595 l 161 616 l 161 498 l 237 498 l 237 443 l 161 443 l 161 116 l 216 74 l 254 105 l 266 91 l 152 0 q 92 55 29 74 l 26 86 q 43 97 50 109 q 62 129 62 158 l 62 443 l 16 443 l 16 498 l 62 498 l 62 616 q 135 666 172 700 z"},"Q":{"x_min":0,"x_max":844,"ha":844,"o":"m 576 82 q 460 0 352 0 q 271 0 194 41 q 118 81 77 152 q 35 223 35 309 q 35 358 45 404 q 56 450 81 510 q 129 534 194 576 q 229 599 370 687 q 398 705 434 730 q 519 721 566 706 q 639 683 693 640 q 748 598 778 541 q 809 483 809 416 q 809 354 779 299 q 738 220 655 146 l 784 52 l 815 78 l 829 63 l 726 -25 z m 396 633 q 363 635 331 636 l 331 347 q 331 301 325 283 q 319 265 304 247 q 289 229 211 157 q 253 118 295 101 q 337 83 396 81 z m 417 502 q 453 472 484 459 q 516 445 553 445 q 587 445 616 459 q 645 472 677 502 q 649 539 625 556 q 582 588 531 606 q 480 624 417 631 z m 231 572 q 189 541 171 520 q 147 492 131 452 q 115 412 115 364 q 115 261 195 171 q 217 192 224 213 q 231 234 231 294 z m 417 299 q 452 333 482 347 q 512 360 552 360 q 593 360 626 346 q 660 331 698 295 q 711 343 711 379 q 711 412 706 436 q 702 454 690 481 q 647 447 616 434 q 585 422 547 422 q 512 422 483 433 q 455 445 417 475 z m 417 81 q 479 84 518 101 q 576 125 619 169 q 662 213 690 275 q 623 338 552 338 q 511 338 474 316 q 447 301 417 264 z"},"w":{"x_min":0,"x_max":677,"ha":677,"o":"m 410 403 l 555 521 q 600 488 614 462 q 633 428 633 383 l 633 87 q 582 71 546 51 q 511 32 475 0 q 393 52 337 52 q 286 52 234 0 q 186 40 141 58 q 97 76 45 79 l 45 90 q 67 99 76 115 q 85 132 85 179 l 85 364 q 85 408 82 417 q 80 427 66 442 q 45 466 38 484 q 31 501 31 523 q 31 564 56 595 q 82 626 146 658 l 154 645 q 102 608 102 574 q 102 562 107 551 q 110 545 143 509 q 165 485 177 456 q 184 438 186 406 l 328 521 q 367 495 386 467 q 405 439 410 403 z m 186 381 l 186 131 l 309 80 l 309 346 q 309 388 300 405 q 292 422 260 442 z m 410 378 l 410 134 l 534 82 l 534 353 q 534 389 527 403 q 520 416 486 442 z"},"-":{"x_min":0,"x_max":396,"ha":396,"o":"m 165 289 l 334 289 l 334 226 l 165 226 z"},"E":{"x_min":0,"x_max":729,"ha":729,"o":"m 282 668 l 292 653 q 211 602 173 534 q 134 467 134 391 q 134 292 202 202 q 230 226 236 241 q 242 257 242 323 l 242 548 l 455 730 q 515 701 555 690 q 596 679 636 679 q 656 679 687 683 l 699 668 l 530 498 l 662 498 l 609 404 l 423 404 l 423 88 l 455 86 q 524 86 592 121 q 644 147 699 202 l 710 184 q 654 95 585 52 q 502 0 395 0 q 227 0 129 116 q 51 208 51 333 q 51 410 83 476 q 115 543 172 596 q 213 633 282 668 z m 401 645 l 341 595 l 341 368 q 341 331 337 316 q 333 301 318 284 q 286 246 214 187 q 257 142 299 120 q 340 98 401 90 z m 588 589 q 537 597 504 607 q 471 617 423 641 l 423 422 z"},"s":{"x_min":0,"x_max":452,"ha":452,"o":"m 288 339 l 400 280 l 400 75 q 359 71 326 55 q 293 39 251 0 q 215 21 188 30 q 162 38 132 38 q 86 38 50 10 q 37 0 31 0 q 26 0 21 5 q 15 11 15 16 q 15 22 25 32 q 31 38 45 54 l 90 109 l 153 193 l 46 250 l 46 433 q 96 448 125 468 q 153 487 180 521 q 242 494 280 483 q 308 476 333 476 q 360 476 375 488 q 390 500 390 513 q 390 522 380 531 q 361 548 361 564 q 361 579 370 588 q 378 597 388 597 q 402 597 413 585 q 424 572 424 552 q 424 531 415 511 q 406 491 381 459 z m 145 306 l 211 271 l 318 413 q 285 403 261 403 q 201 403 145 443 z m 229 261 l 111 104 q 132 111 151 114 q 169 118 185 118 q 241 118 301 81 l 301 222 z"},">":{"x_min":0,"x_max":667,"ha":667,"o":"m 64 594 l 603 369 l 603 287 l 64 62 l 64 159 l 480 328 l 64 496 z"},"l":{"x_min":0,"x_max":281,"ha":281,"o":"m 245 700 l 245 687 q 207 667 191 638 q 175 609 175 550 l 175 116 l 230 74 l 252 92 l 264 74 l 167 0 q 122 39 100 51 q 78 64 42 74 l 42 85 q 56 93 63 106 q 71 119 74 136 q 75 142 75 194 l 75 543 q 75 587 72 605 q 68 622 58 638 q 48 654 23 673 l 31 683 q 76 670 111 631 q 147 670 177 684 q 207 698 245 700 z"},"8":{"x_min":0,"x_max":510,"ha":510,"o":"m 207 676 l 245 676 q 352 676 404 634 q 457 592 457 541 q 457 506 433 473 q 409 440 357 403 q 411 384 438 354 q 479 308 479 253 q 479 195 438 141 q 397 86 264 0 l 247 0 q 146 0 89 50 q 33 100 33 167 q 33 212 62 253 q 92 294 134 326 q 94 340 73 369 q 51 399 51 434 q 51 481 83 536 q 116 590 207 676 z m 147 583 q 132 565 124 546 q 117 527 117 507 q 117 471 146 450 q 166 436 217 429 q 253 424 328 410 q 356 427 372 450 q 388 472 388 494 q 388 519 366 541 q 345 562 298 571 q 264 578 147 583 z m 162 318 q 132 292 117 268 q 102 243 102 220 q 102 178 145 146 q 201 103 300 103 q 367 103 400 132 q 434 161 434 198 q 434 222 417 244 q 400 266 351 283 q 317 295 241 305 q 186 313 162 318 z"},"\\":{"x_min":0,"x_max":560,"ha":560,"o":"m 470 -33 l 25 679 l 89 679 l 534 -33 z"},"e":{"x_min":0,"x_max":396,"ha":396,"o":"m 246 521 l 384 360 l 165 207 l 165 118 l 278 73 l 355 125 l 366 110 l 208 0 q 159 26 128 37 q 97 48 39 61 l 39 73 q 56 83 61 97 q 67 111 67 159 l 67 438 q 113 455 143 469 q 165 479 246 521 z m 172 464 l 165 461 l 165 240 l 293 330 z"},"b":{"x_min":0,"x_max":448,"ha":448,"o":"m 229 700 l 232 687 q 195 665 183 643 q 171 621 171 572 l 171 400 l 326 521 q 370 491 385 462 q 400 434 400 384 l 400 89 q 340 66 300 43 q 270 25 243 0 q 201 34 160 53 q 119 71 38 89 l 38 98 q 59 113 64 132 q 72 161 72 266 l 72 548 q 72 604 61 628 q 50 653 19 674 l 27 687 q 64 671 78 662 q 92 654 104 640 q 155 676 176 686 q 197 695 229 700 z m 171 134 l 299 84 l 299 359 q 299 397 292 411 q 285 426 258 444 l 171 377 z"},"%":{"x_min":0,"x_max":981,"ha":981,"o":"m 294 -33 l 230 -33 l 674 679 l 739 679 z m 259 310 q 193 331 155 379 q 117 427 117 482 q 117 539 155 593 q 194 646 259 676 q 305 657 328 639 q 363 611 382 576 q 401 542 401 504 q 401 466 381 426 q 361 387 328 356 q 305 335 259 310 z m 305 376 q 324 403 331 424 q 338 444 338 469 q 338 512 307 550 q 275 588 213 608 q 179 572 179 516 q 179 472 208 435 q 238 399 305 376 z m 726 0 q 660 21 622 69 q 583 117 583 172 q 583 229 622 282 q 661 336 726 366 q 771 347 794 329 q 830 301 849 267 q 868 232 868 194 q 868 156 848 116 q 828 77 794 46 q 771 25 726 0 z m 772 66 q 791 93 798 114 q 805 134 805 159 q 805 202 774 240 q 742 278 680 298 q 646 262 646 206 q 646 162 675 125 q 704 89 772 66 z"},"m":{"x_min":0,"x_max":729,"ha":729,"o":"m 680 492 l 694 479 q 666 455 656 440 q 647 425 644 411 q 641 396 641 351 l 641 147 q 641 107 649 94 q 658 81 665 81 q 675 81 701 101 l 712 86 l 604 0 q 567 28 557 47 q 541 74 541 105 l 541 399 l 492 442 l 414 370 l 414 105 l 451 65 l 365 0 l 279 65 l 314 105 l 314 348 q 314 390 308 402 q 299 419 266 442 l 188 377 l 188 105 l 226 65 l 140 0 l 53 65 l 91 105 l 91 366 q 91 407 80 425 q 71 438 63 438 q 55 438 28 418 l 17 435 l 124 521 q 157 497 169 482 q 181 467 186 450 q 188 437 188 399 l 334 521 q 382 482 396 458 q 411 433 414 394 l 551 521 l 631 446 z"},"#":{"x_min":0,"x_max":668,"ha":668,"o":"m 40 489 l 193 489 l 234 680 l 315 680 l 273 489 l 458 489 l 499 680 l 580 680 l 539 489 l 627 489 l 627 408 l 523 408 l 490 249 l 627 249 l 627 167 l 475 167 l 434 -22 l 353 -22 l 394 167 l 208 167 l 168 -22 l 87 -22 l 127 167 l 40 167 l 40 249 l 144 249 l 177 408 l 40 408 z m 258 408 l 225 249 l 410 249 l 443 408 z"},",":{"x_min":0,"x_max":281,"ha":281,"o":"m 67 77 l 140 149 l 211 82 q 185 -37 79 -88 l 67 -71 q 100 -44 106 -33 q 118 -15 118 4 q 118 20 108 36 q 98 52 67 77 z"},"n":{"x_min":0,"x_max":510,"ha":510,"o":"m 333 521 l 413 446 l 460 492 l 474 479 q 440 447 433 431 q 423 410 423 372 l 423 140 q 423 108 433 92 q 439 82 447 82 q 454 82 479 101 l 491 86 l 386 0 q 346 31 334 54 q 323 78 323 131 l 323 400 l 270 446 l 190 383 l 190 105 l 226 70 l 139 0 l 52 70 l 90 105 l 90 354 q 90 408 80 426 q 72 439 63 439 q 53 439 34 424 l 22 438 l 126 521 q 169 490 180 473 q 190 455 190 424 l 190 407 z"},"h":{"x_min":0,"x_max":448,"ha":448,"o":"m 228 700 l 232 688 q 198 666 185 640 q 172 615 172 560 l 172 400 l 323 521 q 372 489 386 460 q 401 431 401 361 l 401 140 q 401 77 388 47 q 367 0 310 -42 q 236 -98 121 -139 l 114 -121 q 208 -82 244 -50 q 281 -19 292 17 q 300 44 300 157 l 300 361 q 300 396 293 409 q 283 427 256 444 l 172 376 l 172 104 l 207 70 l 121 0 l 34 70 l 73 108 l 73 553 q 73 613 62 636 q 51 658 20 676 l 25 688 q 51 681 66 672 q 82 663 107 640 q 137 668 165 682 q 192 695 228 700 z"},"z":{"x_min":0,"x_max":333,"ha":333,"o":"m 18 424 l 162 521 l 227 458 q 242 443 251 438 q 260 434 270 434 q 276 434 285 438 l 290 429 l 144 297 l 158 297 q 219 297 258 260 q 297 222 297 169 q 297 139 281 110 q 265 81 233 58 q 209 41 149 9 q 89 -22 75 -37 q 61 -53 61 -71 q 61 -89 72 -101 q 84 -113 103 -113 q 110 -113 123 -110 q 130 -108 135 -108 q 141 -108 145 -112 q 149 -116 149 -122 q 149 -128 144 -133 q 137 -139 123 -139 q 86 -139 64 -119 q 42 -99 42 -70 q 42 -47 57 -25 q 71 -4 115 31 q 159 65 172 85 q 190 116 190 147 q 190 181 166 205 q 141 229 102 229 q 74 229 37 208 l 26 217 l 190 365 l 94 452 l 31 411 z"},"B":{"x_min":0,"x_max":844,"ha":844,"o":"m 657 740 q 708 726 733 700 q 770 663 770 614 q 770 575 741 532 q 713 490 636 432 q 702 426 732 411 q 763 395 775 371 q 787 346 787 289 l 787 121 q 613 102 491 0 q 448 29 410 42 q 349 62 278 62 q 192 62 140 27 q 104 3 104 -20 q 104 -29 115 -46 q 125 -63 125 -74 q 125 -83 117 -91 q 110 -98 101 -98 q 87 -98 76 -85 q 65 -72 65 -52 q 65 -33 79 -9 q 92 16 137 61 q 182 106 194 127 q 207 148 207 167 q 207 188 192 202 q 178 216 156 216 q 136 216 123 205 q 110 193 106 167 l 88 167 q 88 177 88 181 q 88 222 115 249 q 143 275 189 275 q 194 275 206 274 q 205 322 191 344 q 170 378 126 378 q 99 378 78 364 q 66 357 55 334 l 37 340 q 42 387 73 415 q 104 443 153 443 q 171 443 198 440 q 200 509 211 540 q 222 572 247 598 q 272 624 343 670 q 276 648 230 648 q 200 648 152 660 q 124 667 112 667 q 90 667 75 652 q 60 637 55 599 l 37 599 q 38 643 53 673 q 68 703 99 721 q 129 740 164 740 q 189 740 248 725 q 307 710 344 710 q 371 710 396 716 q 421 722 462 740 l 472 719 q 366 667 331 619 q 296 570 296 490 l 296 289 q 296 223 282 187 q 267 150 223 103 q 309 140 339 182 q 369 224 369 305 l 369 449 q 369 550 386 591 q 404 632 451 662 q 498 691 657 740 z m 572 692 q 520 668 501 652 q 483 635 476 613 q 469 590 469 536 l 469 335 q 469 282 459 255 q 449 228 421 201 q 394 175 309 125 q 354 132 394 132 q 461 132 521 114 l 521 521 l 543 521 l 543 394 q 610 434 643 477 q 675 520 675 569 q 675 610 650 640 q 625 669 572 692 z m 543 323 q 583 309 615 309 q 647 309 688 323 q 688 357 672 377 q 657 398 615 416 q 562 381 543 371 z m 688 302 q 646 288 615 288 q 582 288 543 302 l 543 215 q 581 229 613 229 q 645 229 688 215 z m 688 192 q 643 208 611 208 q 579 208 543 192 l 543 105 q 564 96 583 84 q 632 110 688 125 z"},"K":{"x_min":0,"x_max":844,"ha":844,"o":"m 486 740 l 504 729 q 463 659 446 606 q 429 553 424 481 l 611 630 l 725 498 l 530 359 q 575 335 609 300 q 642 264 687 189 q 731 114 741 103 q 750 93 760 93 q 769 93 788 112 l 813 136 l 829 118 l 707 0 q 682 18 667 36 q 652 55 603 144 l 477 0 q 418 26 371 37 q 324 48 274 48 q 225 48 178 37 q 131 26 70 0 l 55 22 q 150 99 192 158 q 212 187 212 214 q 212 240 195 257 q 178 274 155 274 q 133 274 117 253 l 100 261 q 108 290 129 305 q 150 321 176 321 q 193 321 212 314 q 230 308 250 293 q 251 309 251 321 q 251 373 221 405 q 191 438 148 438 q 124 438 100 416 l 83 422 q 95 454 118 469 q 141 485 171 485 q 188 485 206 479 q 225 472 246 459 q 245 479 245 495 q 245 540 264 575 q 282 609 370 701 q 318 671 288 661 q 258 651 229 651 q 213 651 188 655 q 163 660 152 660 q 117 660 92 641 q 67 623 45 580 l 29 584 q 39 633 54 658 q 77 697 111 718 q 146 740 181 740 q 208 740 249 727 q 289 714 315 714 q 357 714 406 740 l 424 729 q 384 670 364 594 q 343 519 343 448 l 345 309 q 345 278 335 252 q 326 226 307 205 q 289 184 285 180 l 141 60 q 179 80 222 99 q 300 132 333 156 q 367 181 385 219 q 403 256 403 314 l 400 466 q 400 521 420 592 q 439 663 486 740 z m 548 552 l 424 452 l 424 438 l 425 360 l 424 312 l 629 458 z m 592 163 q 547 235 508 262 q 470 290 424 292 q 422 236 402 200 q 382 163 334 129 q 409 125 445 117 q 480 108 524 85 z"},"R":{"x_min":0,"x_max":844,"ha":844,"o":"m 535 726 l 703 511 l 546 405 q 613 365 654 310 q 694 255 716 168 q 727 126 737 107 q 745 94 765 77 l 813 118 l 830 101 l 712 0 q 676 22 661 48 q 649 65 620 164 q 604 216 579 253 q 554 290 526 309 q 498 328 451 342 l 418 321 l 418 118 q 462 104 512 77 l 562 122 l 578 104 l 451 0 q 382 35 331 49 q 280 63 228 63 q 163 63 103 42 q 71 30 32 0 l 19 12 q 67 74 116 103 q 166 132 237 143 l 237 165 q 237 212 225 242 q 212 272 180 305 q 148 338 112 359 q 89 372 48 385 l 48 405 q 87 420 145 459 l 237 521 q 237 583 228 611 q 219 638 194 656 q 168 674 137 674 q 118 674 103 668 q 87 662 64 646 l 48 658 q 86 697 116 711 q 147 725 192 725 q 242 725 276 705 q 309 685 326 650 q 335 629 337 589 z m 470 653 l 418 618 l 418 348 l 609 476 z m 396 603 l 337 562 l 337 139 q 366 134 396 125 z m 237 493 l 128 420 q 159 405 179 391 q 200 376 237 342 z"},"T":{"x_min":0,"x_max":792,"ha":792,"o":"m 754 730 l 772 717 q 762 670 744 643 q 727 615 692 599 q 658 583 613 583 q 589 583 555 586 l 555 93 q 629 115 673 151 q 717 186 754 252 l 772 244 q 751 178 723 139 q 677 75 605 37 q 534 0 439 0 q 348 0 268 35 q 221 56 183 93 q 144 130 119 183 q 95 235 95 302 q 95 370 122 431 q 148 493 201 549 q 234 584 294 626 l 233 630 q 199 632 157 615 q 116 599 93 572 q 69 544 52 490 l 34 501 q 51 570 77 609 q 112 660 170 688 q 228 716 301 716 q 353 716 482 695 q 612 673 661 673 q 694 673 711 683 q 729 693 754 730 z m 349 622 l 323 624 q 258 568 227 512 q 186 436 186 356 q 186 219 298 133 q 333 163 341 181 q 349 200 349 257 z m 532 591 q 486 597 450 604 l 450 312 q 450 261 446 247 q 442 233 427 216 q 399 186 317 120 q 358 100 384 93 q 428 82 468 82 q 490 82 532 87 z"},"P":{"x_min":0,"x_max":844,"ha":844,"o":"m 415 722 l 437 722 l 437 634 l 572 722 q 675 657 715 618 q 754 579 766 545 q 779 511 779 444 l 779 133 l 628 0 q 568 24 524 36 q 480 47 437 50 l 437 -141 l 255 -141 l 255 59 q 182 55 134 37 q 86 20 38 -19 l 22 0 q 89 73 137 102 q 186 131 255 146 q 254 212 238 252 q 221 292 178 325 q 134 358 67 376 l 67 397 q 102 414 128 432 l 255 515 l 255 549 q 255 597 246 619 q 236 641 211 656 q 186 670 155 670 q 121 670 80 646 l 67 661 q 101 692 134 707 q 167 722 207 722 q 251 722 288 703 q 324 685 340 656 q 355 628 356 581 l 415 620 z m 437 450 q 474 425 501 416 q 528 407 559 407 q 589 407 617 416 q 645 425 682 450 q 681 492 669 520 q 657 547 617 580 q 577 612 500 650 l 437 608 z m 415 594 l 356 555 l 356 -119 l 415 -119 z m 255 487 l 148 417 q 182 402 205 386 q 229 370 255 343 z m 437 272 q 476 294 504 302 q 531 311 560 311 q 589 311 615 302 q 642 294 682 272 l 682 424 q 641 401 614 393 q 587 385 555 385 q 525 385 500 392 q 474 399 437 421 z m 437 146 q 495 144 551 129 q 606 114 682 78 l 682 245 q 645 270 618 279 q 591 288 560 288 q 529 288 502 279 q 475 270 437 245 z"},"|":{"x_min":0,"x_max":566,"ha":566,"o":"m 236 696 l 327 696 l 327 -135 l 236 -135 z"},"t":{"x_min":0,"x_max":281,"ha":281,"o":"m 21 467 l 157 635 l 171 635 l 167 500 l 265 500 l 265 445 l 167 445 l 167 117 l 221 76 l 252 101 l 265 86 l 157 0 q 102 56 32 76 l 32 86 q 52 99 58 113 q 66 131 66 166 l 66 445 l 21 445 z"},"M":{"x_min":0,"x_max":1010,"ha":1010,"o":"m 941 697 l 956 682 q 924 646 915 623 q 906 601 906 555 l 906 177 q 906 119 916 104 q 926 89 942 89 q 955 89 980 112 l 994 93 l 876 0 q 833 21 819 50 q 804 78 804 148 l 804 615 l 722 678 l 689 658 l 689 415 l 749 415 l 689 341 l 689 136 l 728 167 l 742 151 l 562 0 q 521 49 495 71 q 477 87 451 101 l 451 118 q 474 126 481 143 q 487 156 487 203 l 487 341 l 339 341 l 339 131 q 339 44 295 -3 q 250 -50 179 -50 q 164 -50 124 -44 q 96 -40 84 -40 q 59 -40 48 -51 q 36 -62 36 -89 l 17 -89 q 11 -68 11 -54 q 11 -28 25 -5 q 39 19 62 30 q 79 39 126 43 q 173 47 195 73 q 218 98 218 142 q 218 212 185 257 q 152 302 106 302 q 70 302 46 268 l 29 275 q 42 312 59 331 q 77 351 106 362 q 127 370 168 371 q 168 385 168 393 q 168 475 201 531 q 234 587 304 634 q 375 681 506 740 q 552 715 569 690 q 585 665 587 618 l 778 740 l 895 652 z m 487 415 l 487 560 q 487 613 473 637 q 459 661 424 676 q 391 659 376 645 q 357 625 348 597 q 339 569 339 517 l 339 362 l 379 415 z m 668 643 l 587 590 l 587 415 l 668 415 z m 335 625 q 293 591 280 561 q 268 531 268 457 l 268 180 q 268 112 250 85 q 233 58 183 38 q 205 36 220 36 q 256 36 279 49 q 302 61 309 79 q 316 98 316 144 l 316 512 q 316 554 321 582 q 325 599 335 625 z m 668 341 l 587 341 l 587 215 q 587 149 596 131 q 610 99 634 99 q 646 99 668 118 z"},"g":{"x_min":0,"x_max":510,"ha":510,"o":"m 249 521 l 400 449 l 491 495 l 491 385 l 403 402 l 403 181 q 403 127 410 108 q 418 83 444 50 q 487 -4 487 -27 q 487 -51 465 -72 q 442 -94 346 -139 q 313 -127 284 -121 q 254 -116 227 -116 q 163 -116 78 -139 l 71 -122 l 187 13 l 71 96 l 71 449 q 168 470 249 521 z m 304 403 l 170 449 l 170 129 l 243 77 l 304 150 z m 157 -50 q 221 -40 260 -40 q 295 -40 331 -49 q 367 -59 403 -78 l 423 -65 q 357 -3 334 35 q 311 73 304 118 z"},"j":{"x_min":0,"x_max":281,"ha":281,"o":"m 189 690 l 253 690 l 187 586 l 165 586 z m 35 433 l 149 521 q 173 492 193 475 q 213 458 250 433 q 220 391 207 352 q 194 314 194 267 q 194 222 206 148 q 214 100 214 76 q 214 24 192 -18 q 169 -61 127 -94 q 102 -115 50 -139 l 42 -120 q 85 -92 106 -54 q 127 -17 127 23 q 127 51 114 111 q 94 204 94 259 q 94 298 101 331 q 107 363 125 405 q 108 427 83 445 l 47 419 z"},"i":{"x_min":0,"x_max":281,"ha":281,"o":"m 164 688 l 226 688 l 158 582 l 139 582 z m 126 521 l 213 449 l 175 411 l 175 146 q 175 104 183 91 q 190 78 199 78 q 205 78 209 81 q 216 84 238 100 l 250 85 l 139 0 q 100 28 88 52 q 77 77 77 139 l 77 411 l 41 449 z"},"y":{"x_min":0,"x_max":448,"ha":448,"o":"m 26 435 l 129 521 q 171 492 183 471 q 196 450 196 414 l 196 403 l 344 521 q 419 441 419 350 q 419 301 395 253 q 370 204 316 160 q 263 117 145 46 q 93 15 83 6 q 61 -11 51 -27 q 44 -39 44 -53 q 44 -78 69 -99 q 94 -121 134 -121 q 164 -121 183 -110 q 192 -105 201 -90 q 209 -74 216 -69 q 222 -64 231 -64 q 241 -64 247 -69 q 252 -75 252 -83 q 252 -99 229 -114 q 194 -139 141 -139 q 84 -139 54 -112 q 24 -85 24 -49 q 24 -13 58 21 q 74 38 78 45 q 88 63 92 79 q 96 95 96 124 l 96 357 q 96 406 85 424 q 76 438 66 438 q 58 438 44 425 q 42 423 38 419 z m 196 380 l 196 103 q 265 153 294 207 q 323 261 323 310 q 323 375 269 438 z"},"@":{"x_min":0,"x_max":921,"ha":921,"o":"m 570 452 l 689 457 l 600 150 q 585 99 585 73 q 585 58 597 47 q 608 35 624 35 q 659 35 712 74 q 765 113 800 185 q 835 257 835 338 q 835 473 748 560 q 662 646 522 646 q 402 646 304 590 q 206 534 148 426 q 91 319 91 196 q 91 27 198 -81 q 306 -188 473 -188 q 610 -188 719 -115 q 828 -41 873 81 l 903 81 q 844 -63 732 -139 q 620 -216 472 -216 q 284 -216 162 -94 q 40 27 40 213 q 40 341 100 450 q 161 559 270 618 q 379 677 512 677 q 620 677 701 634 q 782 591 822 513 q 863 435 863 348 q 863 246 819 163 q 775 80 710 40 q 645 0 570 0 q 521 0 496 24 q 471 48 471 84 q 471 112 482 154 q 442 87 420 62 q 389 27 359 11 q 339 0 313 0 q 279 0 256 28 q 232 55 232 107 q 232 189 264 262 q 296 334 340 382 q 383 429 434 457 q 458 470 484 470 q 512 470 530 453 q 547 436 554 394 z m 496 435 q 486 435 471 425 q 456 414 430 368 q 404 322 381 250 q 358 179 358 134 q 358 113 367 101 q 376 89 387 89 q 400 89 424 112 q 466 152 499 229 q 531 307 531 372 q 531 405 519 422 q 509 435 496 435 z"},".":{"x_min":0,"x_max":281,"ha":281,"o":"m 140 0 l 66 74 l 140 149 l 215 74 z"},"p":{"x_min":0,"x_max":448,"ha":448,"o":"m 14 445 l 113 521 q 153 493 166 470 q 179 446 179 405 l 305 521 q 369 474 391 441 q 404 419 404 377 l 404 104 q 340 75 260 0 q 231 19 179 43 l 179 8 q 179 -53 191 -79 q 203 -105 235 -125 l 229 -139 q 174 -120 147 -102 q 128 -89 113 -67 q 78 -99 47 -110 l 41 -100 q 62 -80 70 -59 q 79 -38 79 0 l 79 71 q 51 77 22 77 q 20 77 14 76 l 14 117 q 49 125 79 128 l 79 372 q 79 411 68 426 q 58 441 47 441 q 39 441 25 429 z m 179 380 l 179 128 q 236 116 257 110 q 277 104 305 91 l 305 365 q 305 388 303 392 q 302 396 289 407 q 261 431 245 442 z"},"X":{"x_min":0,"x_max":677,"ha":677,"o":"m 384 452 l 516 740 q 578 696 660 659 l 619 580 l 493 635 l 398 420 l 612 420 l 580 348 l 434 348 l 521 165 q 546 110 558 97 q 575 77 587 77 q 594 77 612 93 l 644 121 l 660 104 l 542 0 q 497 21 480 39 q 463 56 440 104 l 339 317 l 191 0 q 126 45 37 78 l 76 165 l 218 109 l 327 348 l 116 348 l 150 420 l 291 420 l 218 573 q 197 618 188 629 q 176 646 156 656 q 137 666 118 666 q 95 666 74 653 q 53 639 31 608 l 18 624 q 34 680 72 710 q 110 740 157 740 q 207 740 240 714 q 274 688 306 619 z"},"*":{"x_min":0,"x_max":510,"ha":510,"o":"m 196 373 q 229 427 245 525 q 235 520 217 511 q 154 478 116 434 l 40 470 l 80 546 q 109 537 150 537 q 188 537 238 546 q 193 588 163 610 q 146 622 110 638 l 123 721 l 208 707 q 208 678 219 645 q 229 611 254 558 q 300 644 303 707 l 387 721 l 399 638 q 364 624 344 609 q 309 584 272 546 q 326 537 362 537 q 408 537 431 546 l 471 470 l 393 434 q 362 472 266 525 q 276 464 285 439 q 298 397 314 373 l 254 312 z"},"Y":{"x_min":0,"x_max":792,"ha":792,"o":"m 60 679 l 49 698 q 83 726 105 735 q 126 743 154 743 q 194 743 229 727 q 263 711 283 686 q 298 666 308 625 q 380 679 430 699 q 480 720 527 720 q 614 720 677 647 q 741 575 741 448 q 741 375 717 310 q 693 245 645 203 q 598 162 534 143 q 470 125 424 125 l 217 129 q 170 129 130 114 q 89 99 70 73 q 52 47 52 17 q 52 -22 80 -49 q 109 -77 149 -77 q 171 -77 195 -70 q 218 -64 284 -36 q 379 6 442 6 q 506 6 544 -24 q 572 -48 572 -85 q 572 -108 559 -121 q 546 -135 527 -135 q 511 -135 500 -123 q 488 -110 488 -91 q 488 -76 499 -57 q 506 -45 506 -41 q 506 -34 500 -29 q 492 -23 479 -23 q 462 -23 443 -30 q 424 -37 374 -66 q 303 -106 262 -121 q 221 -135 187 -135 q 121 -135 75 -91 q 29 -48 29 11 q 29 67 73 108 q 117 148 208 153 q 209 164 209 168 q 209 224 185 265 q 161 306 123 326 q 98 339 60 340 l 60 357 q 81 361 96 361 q 127 361 153 352 q 179 343 208 322 q 209 336 209 347 q 209 407 173 446 q 136 485 85 485 q 73 485 55 482 l 55 501 q 86 518 117 518 q 139 518 158 512 q 178 505 208 486 q 209 511 209 529 q 209 622 180 659 q 151 696 111 696 q 86 696 60 679 z m 385 512 q 416 485 440 475 q 465 464 497 464 q 531 464 559 476 q 587 488 624 521 q 609 566 592 590 q 567 627 533 646 q 500 664 464 664 q 431 664 385 643 z m 362 631 q 334 615 308 596 l 308 153 q 326 153 335 153 l 362 153 z m 385 334 q 422 359 449 369 q 477 378 507 378 q 539 378 566 369 q 593 359 629 334 q 637 377 637 409 q 637 442 629 495 q 587 463 557 452 q 526 440 492 440 q 465 440 441 449 q 417 458 385 481 z m 385 153 q 456 155 501 171 q 545 188 574 219 q 602 250 624 309 q 588 336 563 345 q 538 354 507 354 q 476 354 448 345 q 421 335 385 309 z"},"c":{"x_min":0,"x_max":333,"ha":333,"o":"m 192 521 l 319 448 l 268 372 l 172 427 l 172 116 l 268 72 l 319 109 l 324 88 l 203 0 q 156 26 123 39 q 90 51 42 61 l 42 72 q 59 84 64 98 q 72 117 72 157 l 72 435 q 133 463 192 521 z"},"!":{"x_min":0,"x_max":281,"ha":281,"o":"m 54 576 l 141 667 l 228 576 q 166 453 151 183 l 131 183 q 119 338 100 429 q 81 520 54 576 z m 141 0 l 66 74 l 141 149 l 215 74 z"},"/":{"x_min":0,"x_max":560,"ha":560,"o":"m 89 -33 l 25 -33 l 470 679 l 534 679 z"},"[":{"x_min":0,"x_max":281,"ha":281,"o":"m 259 -145 l 259 -168 l 58 -168 l 58 721 l 259 721 l 259 697 l 150 697 l 150 -145 z"},"6":{"x_min":0,"x_max":510,"ha":510,"o":"m 446 589 l 377 502 l 197 586 q 160 533 144 484 q 123 415 123 349 q 123 332 125 308 l 346 455 q 414 428 448 382 q 481 337 481 279 q 481 208 440 150 q 382 69 258 0 q 142 40 85 116 q 28 192 28 299 q 28 379 55 440 q 83 501 140 565 q 197 628 263 676 z m 128 282 q 147 206 207 155 q 267 104 353 90 q 401 142 401 207 q 401 256 365 300 q 329 343 253 366 z"},"r":{"x_min":0,"x_max":396,"ha":396,"o":"m 306 521 l 379 432 l 306 367 l 244 444 l 196 400 l 196 116 l 251 76 l 302 116 l 313 100 l 188 0 q 148 36 121 51 q 94 67 62 76 l 62 86 q 83 102 90 117 q 96 132 96 176 l 96 375 q 96 413 88 425 q 79 438 69 438 q 58 438 38 418 l 26 432 l 129 521 q 171 489 186 465 q 196 451 196 425 z"},"2":{"x_min":0,"x_max":510,"ha":510,"o":"m 37 523 l 240 676 l 476 534 q 478 506 478 487 q 478 407 434 350 q 390 293 237 207 q 168 168 140 144 q 112 121 89 86 q 149 113 193 123 q 237 134 280 134 q 317 134 355 128 q 394 123 414 118 l 489 93 l 404 0 q 328 26 300 32 q 256 41 217 41 q 143 41 56 7 q 37 0 34 0 q 31 0 30 2 q 28 4 28 9 q 28 33 44 66 q 65 112 106 157 q 135 189 200 242 q 265 294 290 322 q 324 360 343 402 q 362 444 362 492 q 362 562 309 608 l 106 453 z"},"{":{"x_min":0,"x_max":396,"ha":396,"o":"m 352 677 l 352 655 q 303 646 280 621 q 256 596 256 563 q 256 531 268 482 q 280 434 280 397 q 280 364 260 330 q 240 295 203 271 q 177 254 121 239 q 181 220 208 201 q 245 176 263 143 q 281 109 281 79 q 281 49 269 0 q 257 -48 257 -84 q 257 -119 279 -144 q 301 -169 352 -179 l 352 -202 l 334 -202 q 248 -202 191 -143 q 150 -100 150 -47 q 150 -14 165 45 q 176 88 176 123 q 176 161 152 188 q 127 215 81 223 l 81 253 q 127 261 152 289 q 176 317 176 358 q 176 391 166 433 q 150 491 150 521 q 150 553 169 585 q 188 618 217 639 q 246 659 280 668 q 307 676 352 677 z"},"9":{"x_min":0,"x_max":510,"ha":510,"o":"m 66 84 l 135 171 l 316 88 q 353 145 368 192 q 390 264 390 330 q 390 345 386 369 l 165 219 q 114 244 96 259 q 66 283 46 320 q 26 356 26 400 q 26 472 79 538 q 143 617 249 676 q 361 644 422 566 q 482 488 482 378 q 482 296 451 226 q 428 173 373 113 q 319 53 249 0 z m 382 393 q 344 547 157 585 q 133 557 121 528 q 109 500 109 471 q 109 437 126 403 q 144 369 177 345 q 202 327 256 308 z"}," ":{"x_min":0,"x_max":255,"ha":255,"o":""},"I":{"x_min":0,"x_max":615,"ha":615,"o":"m 575 740 l 583 723 q 532 708 513 683 q 493 658 493 615 q 493 562 516 429 q 535 321 538 292 q 542 264 542 233 q 542 155 513 103 q 484 51 439 27 q 394 3 357 3 q 319 3 229 32 q 158 54 127 54 q 97 54 76 38 q 55 23 45 -7 l 26 0 q 38 46 57 71 q 82 104 110 118 q 138 131 192 134 q 246 137 265 157 q 285 176 285 219 q 285 304 251 349 q 227 381 187 381 q 170 381 153 374 q 135 367 106 345 l 92 357 q 118 401 152 423 q 187 445 233 445 q 240 445 250 445 q 251 524 273 575 q 294 626 354 692 q 295 665 279 659 q 263 654 245 654 q 229 654 200 660 q 171 665 157 665 q 123 665 104 650 q 86 635 82 602 l 63 606 q 71 660 98 691 q 136 734 200 734 q 219 734 245 728 q 293 718 326 718 q 352 718 372 722 q 391 727 419 740 l 431 726 q 380 684 360 641 q 340 599 340 521 q 340 481 343 451 q 344 437 356 362 q 370 267 370 237 q 370 182 336 151 q 312 128 255 117 q 312 67 335 55 q 358 42 381 42 q 414 42 436 66 q 459 90 459 128 q 459 174 437 302 q 411 454 411 529 q 411 599 430 641 q 450 683 489 709 q 519 729 575 740 z"},"H":{"x_min":0,"x_max":844,"ha":844,"o":"m 600 740 l 609 719 q 544 697 514 674 q 483 651 474 625 q 464 600 464 543 l 464 442 l 655 595 q 715 557 746 523 q 776 489 786 456 q 796 422 796 345 l 796 272 q 796 215 789 188 q 782 160 761 132 q 729 92 653 32 q 599 -11 586 -27 q 573 -44 573 -56 q 573 -62 578 -67 q 583 -72 592 -72 q 597 -72 607 -70 q 616 -67 622 -67 q 634 -67 641 -74 q 647 -80 647 -91 q 647 -105 636 -114 q 622 -126 601 -126 q 578 -126 562 -108 q 546 -90 546 -65 q 546 -47 558 -24 q 570 0 617 58 q 665 117 678 147 q 692 177 698 220 q 637 248 588 248 q 525 248 463 219 q 402 190 321 117 q 355 119 372 119 q 410 119 475 112 q 493 110 507 110 q 531 110 550 122 q 568 134 588 162 l 609 150 l 500 -3 q 433 25 384 37 q 334 49 283 49 q 226 49 182 35 q 137 21 119 0 q 105 -17 105 -30 q 105 -40 117 -57 q 125 -69 125 -80 q 125 -92 118 -100 q 111 -107 102 -107 q 90 -107 79 -94 q 67 -81 67 -62 q 67 -39 80 -17 q 92 5 135 49 q 178 92 190 115 q 203 139 203 161 q 203 178 194 188 q 185 198 169 198 q 140 198 122 156 l 100 156 q 104 194 116 214 q 128 234 152 249 q 170 259 202 262 q 199 321 178 344 q 157 366 117 366 q 93 366 79 357 q 64 348 50 323 l 32 328 q 38 360 48 376 q 64 400 91 413 q 118 427 148 427 q 167 427 191 424 q 190 447 190 463 q 190 521 222 575 q 246 613 301 654 q 246 637 227 637 q 210 637 139 649 q 111 655 102 655 q 85 655 71 640 q 57 626 50 588 l 25 588 q 33 633 47 657 q 68 692 101 712 q 133 731 166 731 q 185 731 234 717 q 283 703 312 703 q 370 703 442 740 l 453 719 q 354 681 316 624 q 292 586 292 500 l 292 272 q 292 212 280 178 q 267 145 224 92 q 284 125 315 160 q 347 194 356 224 q 364 254 364 328 l 364 494 q 364 572 382 609 q 400 647 444 676 q 488 705 600 740 z m 464 414 l 464 392 q 528 366 583 366 q 616 366 640 373 q 665 379 698 396 q 689 432 666 459 q 643 486 593 514 z m 464 245 q 524 271 579 271 q 608 271 634 265 q 660 260 698 245 l 698 370 q 661 354 636 349 q 611 343 581 343 q 525 343 464 367 z"},"4":{"x_min":0,"x_max":510,"ha":510,"o":"m 473 303 l 492 216 l 373 216 l 373 115 l 402 100 q 418 93 424 93 q 433 93 442 100 l 459 115 l 473 98 l 356 0 l 239 73 l 271 115 l 271 216 l 39 216 l 18 311 l 291 676 q 326 671 349 641 q 373 611 373 558 l 373 303 z m 271 303 l 271 507 q 271 536 264 551 q 257 566 243 574 l 41 303 z"},"~":{"x_min":0,"x_max":667,"ha":667,"o":"m 571 412 l 602 412 q 598 329 560 287 q 521 245 465 245 q 438 245 407 253 q 377 262 281 302 q 211 332 180 332 q 147 332 125 311 q 104 291 96 245 l 65 245 q 69 332 106 372 q 144 413 197 413 q 226 413 251 405 q 300 392 385 355 q 432 334 455 328 q 470 324 487 324 q 520 324 543 347 q 566 369 571 412 z"},"D":{"x_min":0,"x_max":844,"ha":844,"o":"m 18 725 l 41 725 q 49 701 67 690 q 90 677 143 677 q 177 677 357 684 q 466 688 493 688 q 574 688 631 660 q 688 632 723 575 q 759 517 771 416 q 779 345 785 104 q 689 44 638 0 q 483 43 364 43 q 284 43 215 24 q 146 5 69 -38 l 55 -19 q 155 33 230 87 q 306 141 330 184 q 354 227 354 292 q 354 316 354 363 q 353 396 353 431 q 353 493 360 522 q 367 552 390 590 l 377 590 q 317 556 298 528 q 278 500 278 456 l 282 283 q 282 213 240 158 q 199 104 41 0 l 27 19 q 106 75 132 110 q 157 146 157 185 q 157 219 136 242 q 114 266 88 266 q 75 266 64 259 q 53 251 34 229 l 18 244 q 35 286 62 306 q 90 325 128 325 q 140 325 153 323 q 167 320 182 315 q 181 344 181 365 q 181 441 212 490 q 243 538 331 590 q 250 582 192 582 q 130 582 85 599 q 52 613 37 643 q 21 673 18 725 z m 414 590 q 393 554 385 528 q 375 492 375 460 l 379 268 q 379 231 361 192 q 347 164 308 122 q 379 134 417 133 l 444 133 l 444 590 z m 469 402 q 499 381 521 374 q 543 366 569 366 q 595 366 618 374 q 640 382 670 402 q 661 512 614 551 q 566 590 469 590 z m 469 241 q 502 260 526 267 q 549 274 577 274 q 604 274 627 268 q 650 261 682 243 l 674 375 q 643 356 620 349 q 597 342 570 342 q 544 342 519 351 q 494 359 469 375 z m 469 131 q 529 126 566 119 q 604 112 683 90 q 684 164 684 166 q 684 172 683 213 q 652 234 628 243 q 604 251 577 251 q 548 251 524 243 q 500 234 469 213 z"},"^":{"x_min":0,"x_max":581,"ha":581,"o":"m 73 325 l 274 676 l 314 676 l 511 325 l 434 325 l 290 575 l 148 325 z"},"0":{"x_min":0,"x_max":510,"ha":510,"o":"m 250 676 q 361 638 422 554 q 484 470 484 357 q 484 246 427 155 q 369 63 271 0 q 201 17 144 62 q 87 108 57 177 q 27 245 27 319 q 27 424 88 524 q 149 624 250 676 z m 165 586 q 98 509 98 401 q 98 325 130 258 q 163 190 224 146 q 285 103 348 93 q 383 142 398 184 q 413 226 413 277 q 413 348 385 411 q 356 475 299 519 q 242 563 165 586 z"},"F":{"x_min":0,"x_max":848,"ha":848,"o":"m 806 730 l 828 730 q 826 687 814 665 q 799 635 768 617 q 737 600 700 600 q 661 600 606 621 l 606 492 l 759 492 l 731 419 l 606 419 l 606 187 q 606 118 596 87 q 587 55 559 26 q 531 -2 489 -22 q 429 -50 393 -62 l 188 -131 q 91 -95 76 -95 q 62 -95 51 -105 q 41 -114 36 -136 l 16 -131 q 16 -97 24 -78 q 37 -46 61 -30 q 85 -14 112 -14 q 151 -14 212 -41 q 255 -60 264 -62 q 274 -65 283 -65 q 298 -65 311 -53 q 323 -41 327 -15 q 331 11 331 92 l 331 419 l 300 419 q 225 419 189 402 q 152 385 126 344 l 107 352 q 126 416 158 444 q 212 492 307 492 q 315 492 331 492 l 331 596 l 364 594 q 419 594 472 616 q 525 639 562 669 q 585 690 612 730 q 692 679 744 679 q 766 679 782 691 q 797 703 806 730 z m 506 601 q 473 583 431 574 l 431 181 q 431 160 427 104 q 425 70 419 53 q 411 28 395 5 q 379 -18 340 -54 q 404 -30 442 4 q 480 39 493 78 q 506 118 506 198 z"},"`":{"x_min":0,"x_max":333,"ha":333,"o":"m 189 557 l 59 739 l 172 739 l 216 557 z"},"k":{"x_min":0,"x_max":490,"ha":490,"o":"m 246 700 l 246 687 q 209 663 196 635 q 184 608 184 548 l 184 379 l 329 521 l 428 411 l 315 312 q 354 285 373 253 q 392 221 403 159 q 414 97 420 88 q 426 79 432 79 q 438 79 464 99 l 473 83 l 359 0 q 339 21 330 43 q 320 66 315 110 l 177 0 q 147 28 119 44 q 92 61 51 74 l 51 83 q 73 98 80 115 q 86 131 86 197 l 86 552 q 86 594 82 610 q 77 635 66 648 q 56 662 32 673 l 40 687 q 69 676 84 667 q 99 658 121 638 q 152 668 181 682 q 209 696 246 700 z m 272 440 l 184 354 l 184 224 l 344 361 z m 184 199 l 184 114 l 241 74 l 312 133 q 300 215 241 250 z"},"u":{"x_min":0,"x_max":510,"ha":510,"o":"m 373 521 l 460 448 l 420 412 l 420 156 q 420 111 433 92 q 440 79 450 79 q 457 79 476 95 l 489 80 l 386 0 q 347 27 335 49 q 323 71 322 118 q 246 69 167 0 q 120 37 105 65 q 91 93 91 139 l 91 380 q 91 406 87 414 q 80 427 68 427 q 60 427 42 412 l 29 426 l 137 521 l 226 448 l 189 415 l 189 156 q 189 127 197 114 q 204 100 232 80 l 322 146 l 322 412 l 287 448 z"},"]":{"x_min":0,"x_max":281,"ha":281,"o":"m 22 -145 l 132 -145 l 132 697 l 22 697 l 22 721 l 224 721 l 224 -168 l 22 -168 z"},"U":{"x_min":0,"x_max":844,"ha":844,"o":"m 793 714 l 808 699 q 766 647 756 624 q 746 600 746 553 l 746 206 q 746 133 758 114 q 771 95 787 95 q 800 95 814 110 l 821 81 l 718 0 q 676 26 662 51 q 648 76 644 135 q 566 62 498 31 q 429 0 348 0 q 199 0 119 107 q 60 187 60 292 q 60 371 94 438 q 128 506 197 569 q 244 611 322 659 q 261 644 230 644 q 208 644 181 646 q 153 648 135 648 q 94 648 71 624 q 47 599 47 555 q 47 539 50 514 l 29 514 q 23 549 23 571 q 23 648 64 694 q 104 740 160 740 q 175 740 189 737 q 198 735 247 717 q 297 699 336 699 q 372 699 403 712 q 419 719 440 740 l 462 740 l 462 466 q 512 439 557 439 q 581 439 599 445 q 617 450 644 466 l 644 607 l 589 648 l 533 587 l 517 602 l 635 733 l 739 659 z m 440 691 q 409 659 401 633 q 392 607 392 531 l 392 304 q 392 267 387 249 q 379 226 360 204 q 332 171 258 118 q 293 94 324 84 q 355 74 397 74 q 417 74 440 78 z m 239 133 q 271 168 281 198 q 292 229 292 306 l 292 451 q 292 507 295 524 q 298 542 311 563 q 333 602 386 664 q 309 619 262 578 q 216 536 187 473 q 157 410 157 333 q 157 265 182 209 q 200 171 239 133 z m 644 440 q 615 425 596 420 q 578 416 555 416 q 512 416 462 440 l 462 326 q 514 349 556 349 q 596 349 644 326 z m 644 302 q 595 327 556 327 q 532 327 511 321 q 491 315 462 299 l 462 82 q 511 92 551 111 q 591 129 644 168 z"},"o":{"x_min":0,"x_max":448,"ha":448,"o":"m 388 449 l 388 84 q 314 54 282 35 q 257 21 234 0 q 163 43 117 60 q 82 72 37 74 l 32 84 q 51 100 56 112 q 62 129 62 168 l 62 437 q 152 466 215 521 q 285 475 388 449 z m 161 131 l 289 79 l 289 390 q 229 417 204 426 q 186 433 161 437 z"},"N":{"x_min":0,"x_max":1010,"ha":1010,"o":"m 643 740 q 728 719 776 688 q 840 646 874 586 q 907 526 907 458 q 907 411 891 363 q 875 316 837 259 q 824 238 709 85 q 768 111 827 111 q 853 111 870 108 q 888 104 897 104 q 906 104 913 112 q 920 119 944 166 l 968 157 l 884 0 q 817 22 774 22 q 725 22 693 3 q 661 -16 631 -63 l 612 -53 q 628 -3 671 71 q 742 192 777 270 q 733 299 696 312 q 660 324 619 324 q 584 324 554 316 q 524 307 484 285 l 484 199 q 484 120 476 86 q 468 53 440 18 q 412 -17 367 -40 q 323 -63 276 -63 q 257 -63 238 -60 q 228 -58 177 -43 q 126 -28 120 -26 q 106 -24 91 -24 q 68 -24 50 -30 q 32 -37 8 -53 l -6 -41 q 44 47 129 47 q 164 47 219 35 q 253 28 265 28 q 292 28 311 49 q 330 70 330 104 q 330 147 300 176 q 271 206 228 206 q 199 206 167 182 l 153 194 q 175 221 197 233 q 218 245 245 245 q 261 245 278 240 q 294 234 312 224 q 304 267 283 290 q 247 330 191 330 q 168 330 153 325 q 141 321 124 308 l 112 325 q 138 352 160 362 q 182 373 208 373 q 231 373 250 366 q 269 359 301 338 q 301 377 288 401 q 275 424 243 443 q 210 462 180 462 q 152 462 124 442 l 112 458 q 134 482 153 491 q 177 503 205 503 q 229 503 249 496 q 270 489 301 468 l 301 577 z m 484 477 q 530 450 564 440 q 598 429 634 429 q 676 429 713 442 q 750 456 800 489 q 773 559 708 601 q 642 644 561 644 q 526 644 484 631 z m 461 624 l 402 595 l 402 174 q 402 101 387 70 q 373 39 331 10 q 381 14 403 30 q 437 53 449 87 q 461 121 461 203 z m 484 311 q 527 332 557 339 q 587 347 622 347 q 666 347 703 334 q 741 322 785 292 q 799 327 806 358 q 812 390 812 419 q 812 439 807 465 q 753 431 716 418 q 678 406 637 406 q 601 406 566 416 q 532 426 484 451 z"},"+":{"x_min":0,"x_max":667,"ha":667,"o":"m 63 373 l 288 373 l 288 598 l 378 598 l 378 373 l 603 373 l 603 282 l 378 282 l 378 59 l 288 59 l 288 282 l 63 282 z"},"G":{"x_min":0,"x_max":792,"ha":792,"o":"m 708 676 l 716 660 l 539 528 q 591 528 645 501 q 700 475 728 428 q 755 381 755 330 q 755 249 699 173 q 643 98 538 49 q 434 0 342 0 q 253 0 180 40 q 107 79 73 139 q 38 198 38 270 q 38 351 77 420 q 116 489 222 573 l 419 730 q 501 690 548 677 q 594 664 639 664 q 673 664 708 676 z m 344 646 l 336 637 l 336 406 l 564 578 q 458 605 344 646 z m 234 556 q 178 498 156 447 q 133 396 133 329 q 133 275 148 233 q 163 192 192 153 q 220 179 227 196 q 234 214 234 262 z m 422 309 q 456 285 484 275 q 513 266 547 266 q 578 266 604 273 q 631 281 671 304 q 659 355 626 387 q 573 439 494 439 q 460 439 422 426 z m 400 416 q 361 397 336 378 l 336 296 q 336 259 331 246 q 325 233 308 219 q 297 210 290 205 l 206 135 q 250 88 295 66 q 341 44 400 41 z m 422 173 q 483 205 538 205 q 590 205 649 176 q 674 228 674 274 l 674 281 q 630 259 604 251 q 577 244 545 244 q 515 244 484 253 q 453 263 422 281 z m 422 41 q 467 43 496 54 q 540 69 579 98 q 608 119 639 157 q 580 181 534 181 q 479 181 422 149 z"},"q":{"x_min":0,"x_max":448,"ha":448,"o":"m 401 438 l 404 426 q 385 416 379 402 q 373 388 373 339 l 373 3 q 373 -40 380 -61 q 388 -81 409 -101 l 401 -111 q 366 -98 336 -67 q 316 -95 291 -111 q 265 -127 221 -139 l 216 -129 q 251 -98 262 -74 q 272 -50 272 0 l 272 110 l 135 0 q 92 29 76 48 q 60 66 54 86 q 48 106 48 150 l 48 438 q 143 469 201 521 q 271 470 321 451 q 357 438 401 438 z m 145 438 l 145 175 q 145 130 151 120 q 156 110 199 77 l 272 134 l 272 375 z"},"d":{"x_min":0,"x_max":448,"ha":448,"o":"m 25 687 l 357 459 q 365 477 374 486 q 384 496 403 504 l 403 484 q 394 471 391 460 q 388 449 388 416 l 388 87 q 326 64 295 47 q 265 29 230 0 q 172 38 128 55 q 83 72 32 78 l 32 87 q 50 103 55 118 q 60 133 60 182 l 60 438 q 127 456 155 479 l 25 568 z m 288 388 l 188 458 q 174 446 160 438 l 160 136 l 288 80 z"},"1":{"x_min":0,"x_max":510,"ha":510,"o":"m 96 573 l 218 676 q 263 658 284 627 q 305 596 305 547 l 305 139 q 305 122 311 113 q 321 98 349 78 l 402 121 l 418 104 l 289 0 l 170 78 l 203 121 l 203 487 q 203 524 198 538 q 190 562 175 575 q 164 584 155 584 q 146 584 128 570 q 118 562 111 557 z"},"5":{"x_min":0,"x_max":510,"ha":510,"o":"m 133 667 l 437 667 l 399 573 l 141 573 l 104 344 l 310 482 q 392 447 434 389 q 476 331 476 262 q 476 174 418 100 q 359 26 220 0 l 34 112 l 104 188 l 327 58 q 360 85 373 110 q 393 147 393 188 q 393 255 352 309 q 311 362 220 394 l 74 296 z"}}}
